<svg width="30" height="48" viewBox="0 0 30 48" fill="none" xmlns="http://www.w3.org/2000/svg">
<path d="M6.00002 47.5C5.84434 47.5008 5.68937 47.4789 5.54002 47.435C5.33172 47.3737 5.13762 47.2718 4.96891 47.1351C4.80019 46.9984 4.66021 46.8297 4.55702 46.6387C4.45383 46.4476 4.38948 46.2381 4.36768 46.022C4.34589 45.806 4.36707 45.5878 4.43002 45.38L8.96502 29.5H2.16002C1.95756 29.5072 1.75569 29.4742 1.56603 29.4029C1.37638 29.3317 1.20271 29.2237 1.05502 29.085C0.730631 28.7998 0.532256 28.3979 0.503215 27.967C0.474174 27.536 0.616825 27.1111 0.900019 26.785L22.09 1.09499C22.2895 0.854206 22.5536 0.675445 22.8512 0.579772C23.1489 0.484099 23.4676 0.4755 23.77 0.55499C23.978 0.604518 24.1738 0.695609 24.3457 0.822781C24.5175 0.949953 24.6619 1.11058 24.77 1.29499C24.9933 1.66564 25.0616 2.10936 24.96 2.52999L20.92 20.435H27.86C28.1738 20.4368 28.4804 20.5283 28.7439 20.6986C29.0073 20.869 29.2166 21.1112 29.3469 21.3966C29.4773 21.6819 29.5233 21.9987 29.4795 22.3093C29.4358 22.62 29.3041 22.9117 29.1 23.15V23.175L7.23002 46.95C7.07647 47.1246 6.88715 47.264 6.67491 47.3589C6.46268 47.4538 6.2325 47.5019 6.00002 47.5ZM10.295 27.5C10.4497 27.5002 10.6022 27.5363 10.7406 27.6055C10.879 27.6746 10.9994 27.7749 11.0924 27.8985C11.1855 28.0221 11.2486 28.1655 11.2768 28.3176C11.305 28.4697 11.2976 28.6263 11.255 28.775L6.76502 44.5L27.045 22.435H19.67C19.518 22.4387 19.367 22.4077 19.2288 22.3443C19.0905 22.281 18.9685 22.1869 18.8721 22.0692C18.7756 21.9516 18.7073 21.8135 18.6723 21.6655C18.6373 21.5174 18.6365 21.3634 18.67 21.215L22.67 3.51499L2.90002 27.5H10.295Z" fill="black"/>
</svg>
